<svg aria-hidden="true" style="position:absolute;width:0;height:0;overflow:hidden" xmlns="http://www.w3.org/2000/svg"><defs><symbol id="facebook" viewBox="0 0 32 32"><path d="M21.329 5.313h2.921V.225C23.746.156 22.013 0 19.994 0c-4.212 0-7.097 2.649-7.097 7.519V12H8.249v5.688h4.648V32h5.699V17.689h4.46l.708-5.688h-5.169V8.082c.001-1.644.444-2.769 2.735-2.769z"/></symbol><symbol id="instagram" viewBox="0 0 32 32"><path d="M31.969 9.408c-.075-1.7-.35-2.869-.744-3.882a7.806 7.806 0 0 0-1.851-2.838A7.867 7.867 0 0 0 26.542.844C25.523.45 24.36.175 22.66.1 20.947.019 20.403 0 16.059 0s-4.888.019-6.595.094c-1.7.075-2.869.35-3.882.744a7.803 7.803 0 0 0-2.838 1.85A7.867 7.867 0 0 0 .9 5.52C.506 6.539.231 7.702.156 9.402c-.081 1.713-.1 2.257-.1 6.601s.019 4.888.094 6.595c.075 1.7.35 2.869.744 3.882a7.895 7.895 0 0 0 1.85 2.838 7.867 7.867 0 0 0 2.832 1.844c1.019.394 2.182.669 3.882.744 1.706.075 2.25.094 6.595.094s4.888-.019 6.595-.094c1.7-.075 2.869-.35 3.882-.744a8.184 8.184 0 0 0 4.682-4.682c.394-1.019.669-2.182.744-3.882.075-1.707.094-2.251.094-6.595s-.006-4.888-.081-6.595zm-2.882 13.065c-.069 1.563-.331 2.407-.55 2.969a5.31 5.31 0 0 1-3.038 3.038c-.563.219-1.413.481-2.969.55-1.688.075-2.194.094-6.464.094s-4.782-.019-6.464-.094c-1.563-.069-2.407-.331-2.969-.55a4.926 4.926 0 0 1-1.838-1.194 4.974 4.974 0 0 1-1.194-1.838c-.219-.563-.481-1.413-.55-2.969-.075-1.688-.094-2.194-.094-6.464s.019-4.782.094-6.464c.069-1.563.331-2.407.55-2.969a4.868 4.868 0 0 1 1.2-1.838A4.974 4.974 0 0 1 6.639 3.55c.563-.219 1.413-.481 2.969-.55 1.688-.075 2.194-.094 6.464-.094 4.276 0 4.782.019 6.464.094 1.563.069 2.407.331 2.969.55a4.914 4.914 0 0 1 1.838 1.194 4.974 4.974 0 0 1 1.194 1.838c.219.563.481 1.413.55 2.969.075 1.688.094 2.194.094 6.464s-.019 4.77-.094 6.458z"/><path d="M16.059 7.783c-4.538 0-8.22 3.682-8.22 8.22s3.682 8.22 8.22 8.22 8.22-3.682 8.22-8.22-3.682-8.22-8.22-8.22zm0 13.552a5.333 5.333 0 0 1 0-10.664 5.333 5.333 0 0 1 0 10.664zM26.524 7.458a1.919 1.919 0 1 1-3.838 0 1.919 1.919 0 0 1 3.838 0z"/></symbol><symbol id="linkedin" viewBox="0 0 32 32"><path d="M31.992 32v-.001H32V20.263c0-5.741-1.236-10.164-7.948-10.164-3.227 0-5.392 1.771-6.276 3.449h-.093v-2.913h-6.364v21.364h6.627V21.42c0-2.785.528-5.479 3.977-5.479 3.399 0 3.449 3.179 3.449 5.657v10.401h6.62zM.528 10.636h6.635V32H.528V10.636zM3.843 0C1.722 0 0 1.721 0 3.843s1.721 3.879 3.843 3.879c2.121 0 3.843-1.757 3.843-3.879A3.846 3.846 0 0 0 3.843 0z"/></symbol><symbol id="icon-Logo" viewBox="0 0 57 32"><path  d="m20.267 3.733 3.738 3.538-6.938-.004v17.166H35.2v-6.564l3.733 3.534V3.732H20.266zm14.769 13.722L24.439 7.423h10.597v10.032zm-3.29 4.468h-11.81V10.378h.835v10.764h10.975v.782zm-9.021 4.797-.436.898-.436-.898h-.366l.637 1.198v.698h.331v-.698l.635-1.198h-.365zm.548 1.895.154-.441h.734l.155.441h.344l-.717-1.896h-.296l-.716 1.896h.342zm.521-1.493.275.786h-.549l.275-.786zm1.737.741a.429.429 0 0 0-.072.241c0 .16.056.29.168.389s.263.148.451.148.349-.051.484-.152l.107.126h.367l-.279-.329a.95.95 0 0 0 .164-.574h-.275a.758.758 0 0 1-.079.348l-.366-.432.129-.094c.091-.066.157-.132.197-.198s.06-.14.06-.219c0-.12-.044-.22-.133-.301s-.201-.122-.339-.122c-.153 0-.274.043-.365.13s-.135.203-.135.352c0 .061.014.124.043.189s.081.144.155.237a1.12 1.12 0 0 0-.283.262zm.855.419a.485.485 0 0 1-.299.107c-.095 0-.17-.027-.227-.082s-.085-.126-.085-.214c0-.102.052-.192.156-.271l.04-.029.414.488zm-.34-.84c-.089-.11-.134-.202-.134-.275 0-.063.018-.116.055-.158s.085-.063.147-.063c.057 0 .105.018.142.053s.056.077.056.126a.235.235 0 0 1-.081.184l-.04.033-.145.099zm3.086 1.03a.689.689 0 0 0 .224-.474h-.328c-.017.135-.059.232-.124.29s-.162.087-.292.087c-.142 0-.249-.054-.323-.161s-.109-.264-.109-.469v-.168c.002-.202.041-.355.117-.46s.188-.158.331-.158c.123 0 .217.03.28.091s.104.158.12.294h.328c-.021-.207-.095-.368-.223-.482s-.296-.171-.505-.171a.718.718 0 0 0-.683.426 1.116 1.116 0 0 0-.095.473v.177c.003.174.035.328.098.46s.151.234.266.306a.748.748 0 0 0 .4.107c.216 0 .389-.056.52-.169zm1.936-.266c.064-.141.096-.304.096-.49v-.105c-.001-.185-.034-.347-.099-.486a.726.726 0 0 0-.687-.432.757.757 0 0 0-.411.113c-.119.075-.211.183-.277.324s-.098.305-.098.49v.107c.001.181.034.342.099.48s.159.246.279.322a.764.764 0 0 0 .411.112c.155 0 .293-.037.411-.112s.212-.183.276-.323zm-.352-1.071c.08.112.12.273.12.483v.099c0 .214-.04.376-.119.487s-.19.167-.336.167c-.144 0-.257-.057-.339-.171s-.121-.275-.121-.483v-.109c.002-.204.043-.362.122-.473s.192-.168.335-.168c.146 0 .258.056.337.168z"/></symbol><symbol id="icon-Logo-1" viewBox="0 0 57 32"><path  d="M26.727 3.165h-.073a7.542 7.542 0 0 0-.336-.012h-.243c-.212 0-.428.005-.642.016a.4.4 0 0 0-.049 0c-1.944.11-3.848.596-5.609 1.431l-.231.111V16.52l.54-.183a20.64 20.64 0 0 1 1.5-.445 18.34 18.34 0 0 1 4.317-.574v1.551c-.193.001-.38.007-.568.016h-.045a17.207 17.207 0 0 0-3.322.51 16.858 16.858 0 0 0-3.957 1.542V3.792a15.847 15.847 0 0 1 4.151-1.688c1.278-.33 2.593-.5 3.913-.504h.228c.273.007.538.019.788.038.658.046 1.31.15 1.95.311v1.527a12.05 12.05 0 0 0-1.889-.285l-.039-.003c-.132-.011-.263-.022-.386-.022zm2.688 1.561c.339.026.689.038 1.044.038a16.75 16.75 0 0 0 4.114-.528 16.958 16.958 0 0 0 3.956-1.543v14.875a15.88 15.88 0 0 1-4.153 1.688 15.948 15.948 0 0 1-3.913.503c-1 .008-1.997-.11-2.968-.35V4.438c.229.053.465.102.706.142.394.066.81.115 1.214.145zm7.57.115-.54.182c-.497.167-.997.316-1.5.449a18.23 18.23 0 0 1-4.483.575c-.352 0-.676-.01-.989-.03l-.43-.028v12.148l.37.033c.343.03.696.045 1.052.045a14.364 14.364 0 0 0 3.531-.457c.95-.238 1.874-.57 2.759-.991l.231-.111V4.843zM19.06 24.113a.788.788 0 0 0-.6-.243.895.895 0 0 0-.347.065.778.778 0 0 0-.444.449.893.893 0 0 0-.062.335v2.023a.94.94 0 0 0 .08.415.718.718 0 0 0 .48.415c.098.028.2.042.302.042a.855.855 0 0 0 .838-.851v-.226h-.529v.18a.458.458 0 0 1-.031.18.315.315 0 0 1-.077.114.38.38 0 0 1-.222.077.266.266 0 0 1-.249-.109.479.479 0 0 1-.07-.271v-1.887a.643.643 0 0 1 .065-.302c.027-.043.066-.077.112-.098s.097-.03.147-.024a.28.28 0 0 1 .236.114c.059.078.09.173.088.271v.175h.524v-.206a.953.953 0 0 0-.242-.639zM22.202 24.09a.92.92 0 0 0-1.197 0 .82.82 0 0 0-.205.283.959.959 0 0 0-.077.392v1.941a.932.932 0 0 0 .077.397.791.791 0 0 0 .205.271.837.837 0 0 0 .279.171.897.897 0 0 0 .918-.171.849.849 0 0 0 .2-.271.934.934 0 0 0 .077-.397v-1.941a.943.943 0 0 0-.077-.392.867.867 0 0 0-.2-.283zm-.247 2.616a.355.355 0 0 1-.105.28.386.386 0 0 1-.498 0 .352.352 0 0 1-.105-.28v-1.941a.355.355 0 0 1 .105-.28.386.386 0 0 1 .498 0 .352.352 0 0 1 .105.28v1.941zM26.329 27.573v-3.674h-.509l-.668 1.945h-.009l-.673-1.945h-.503v3.674h.525v-2.235h.009l.514 1.58h.262l.518-1.58h.009v2.235h.525zM29.311 24.157a.727.727 0 0 0-.297-.201 1.168 1.168 0 0 0-.38-.057h-.78v3.674h.523v-1.435h.27a.964.964 0 0 0 .472-.1.759.759 0 0 0 .287-.281.875.875 0 0 0 .12-.32c.021-.138.03-.278.028-.418a2.107 2.107 0 0 0-.051-.525.785.785 0 0 0-.193-.338zm-.27 1.12a.45.45 0 0 1-.049.191.296.296 0 0 1-.135.129.538.538 0 0 1-.247.046h-.239v-1.249h.27a.506.506 0 0 1 .236.046.3.3 0 0 1 .123.136.537.537 0 0 1 .046.205v.244c0 .085.005.174 0 .252h-.005zM31.791 23.899h-.429l-.809 3.674h.523l.154-.789h.714l.154.789h.524l-.83-3.674zm-.483 2.384.258-1.332h.009l.256 1.332h-.524zM35.173 26.112h-.009l-.791-2.213h-.503v3.674h.523v-2.209h.011l.8 2.209h.492v-3.674h-.523v2.213zM38.372 23.899l-.421 1.461h-.011l-.421-1.461h-.554l.719 2.121v1.553h.524V26.02l.719-2.121h-.554zM17.6 28.61h.252v.708h.171v-.708h.251v-.145h-.675v.145zM19.721 28.465l-.331.853h.182l.07-.194h.34l.073.194h.186l-.339-.853h-.182zm-.027.516.116-.316.116.316h-.232zM21.818 29.004h.197v.11a.332.332 0 0 1-.202.072c-.034.002-.069-.004-.1-.019s-.059-.036-.081-.063a.352.352 0 0 1-.063-.222c0-.19.082-.285.246-.285.043-.004.086.007.121.032s.061.062.072.104l.169-.033c-.036-.167-.156-.251-.362-.251a.426.426 0 0 0-.298.11.413.413 0 0 0-.122.328.465.465 0 0 0 .109.32.408.408 0 0 0 .324.125.511.511 0 0 0 .362-.136v-.336h-.37v.144zM23.959 28.465h-.173v.853h.598v-.145h-.425v-.708zM25.769 28.465h-.173v.853h.173v-.853zM27.539 29.035l-.349-.57h-.167v.853h.161v-.557l.343.557h.171v-.853h-.158v.57zM29.14 28.943h.425v-.145h-.425v-.187h.457v-.145h-.63v.853h.648v-.145h-.475v-.231zM33.02 28.802h-.336v-.336h-.171v.853h.171v-.373h.336v.373h.171v-.853h-.171v.336zM34.629 28.943h.426v-.145h-.426v-.187h.459v-.145h-.63v.853h.646v-.145h-.475v-.231zM36.812 28.943c.148-.023.224-.102.224-.237a.203.203 0 0 0-.084-.189.479.479 0 0 0-.25-.05h-.362v.853h.171v-.357h.034a.231.231 0 0 1 .107.019.181.181 0 0 1 .061.062l.186.271h.205L37 29.148a.6.6 0 0 0-.189-.205zm-.172-.118h-.127v-.214h.135a.445.445 0 0 1 .174.02c.012.011.022.025.029.04a.116.116 0 0 1-.004.097.114.114 0 0 1-.032.037.486.486 0 0 1-.174.02zM38.458 28.943h.425v-.145h-.425v-.187h.459v-.145h-.631v.853h.648v-.145h-.475v-.231z"/></symbol><symbol id="icon-Logo-2" viewBox="0 0 57 32"><path  d="M19.417 26.187c.008 0 .017.002.025.005s.015.007.02.013l.116.111a.955.955 0 0 1-.327.211 1.299 1.299 0 0 1-.464.076 1.213 1.213 0 0 1-.436-.071.942.942 0 0 1-.329-.2.878.878 0 0 1-.212-.308 1.02 1.02 0 0 1-.074-.396.91.91 0 0 1 .305-.705 1.06 1.06 0 0 1 .349-.201c.143-.048.296-.072.449-.071.143-.003.285.019.417.064.115.043.221.104.313.178l-.097.119a.085.085 0 0 1-.025.021.066.066 0 0 1-.039.009.086.086 0 0 1-.042-.013l-.052-.032-.073-.04a.818.818 0 0 0-.229-.071 1.11 1.11 0 0 0-.173-.013.952.952 0 0 0-.323.053.683.683 0 0 0-.417.387.81.81 0 0 0-.06.313.795.795 0 0 0 .06.318.68.68 0 0 0 .402.383.867.867 0 0 0 .3.05c.059.001.119-.003.177-.01a.69.69 0 0 0 .384-.163.09.09 0 0 1 .055-.02zM22.776 25.629a.974.974 0 0 1-.078.393c-.047.114-.122.218-.219.305s-.214.155-.344.2a1.42 1.42 0 0 1-.884 0 1.027 1.027 0 0 1-.342-.201.904.904 0 0 1-.221-.308 1.022 1.022 0 0 1 0-.787.94.94 0 0 1 .221-.31c.097-.084.214-.15.342-.193.284-.096.6-.096.884 0 .129.046.246.114.343.201a.914.914 0 0 1 .298.699zm-.306 0a.84.84 0 0 0-.055-.316.653.653 0 0 0-.402-.385 1.025 1.025 0 0 0-.643 0 .683.683 0 0 0-.246.149.63.63 0 0 0-.157.236.927.927 0 0 0 0 .632.643.643 0 0 0 .403.384c.207.067.435.067.643 0a.698.698 0 0 0 .246-.148.662.662 0 0 0 .156-.236.82.82 0 0 0 .055-.316zM25.067 25.96l.03.071.033-.071a.68.68 0 0 1 .038-.07l.743-1.174c.015-.02.028-.033.042-.037a.207.207 0 0 1 .061-.006h.22v1.909h-.26V25.119a.726.726 0 0 1 0-.066l-.747 1.19c-.009.018-.025.033-.044.043s-.041.016-.064.016h-.042c-.023 0-.045-.005-.064-.016s-.034-.026-.044-.044l-.769-1.198v1.533h-.252v-1.905h.22a.207.207 0 0 1 .061.006.087.087 0 0 1 .041.037l.759 1.175a.418.418 0 0 1 .038.068zM27.864 25.865v.715h-.291v-1.906h.649c.122-.002.244.012.362.042a.724.724 0 0 1 .256.119.492.492 0 0 1 .145.187.576.576 0 0 1 .049.244.54.54 0 0 1-.211.435.752.752 0 0 1-.257.126 1.25 1.25 0 0 1-.35.044l-.352-.005zm0-.205h.352a.808.808 0 0 0 .225-.029.52.52 0 0 0 .163-.082.358.358 0 0 0 .134-.286c.003-.053-.007-.106-.029-.155s-.057-.094-.102-.13a.624.624 0 0 0-.391-.102h-.352v.786zM31.772 26.583h-.23a.109.109 0 0 1-.064-.018.123.123 0 0 1-.038-.044l-.198-.461h-.993l-.205.461a.107.107 0 0 1-.101.062h-.23l.872-1.909h.302l.884 1.909zm-1.439-.709h.82l-.346-.777a1.276 1.276 0 0 1-.065-.179l-.034.1a.98.98 0 0 1-.032.081l-.343.776zM33.029 24.682c.017.008.032.02.044.034l1.272 1.439V24.673h.26v1.909h-.145a.136.136 0 0 1-.06-.011.165.165 0 0 1-.047-.035l-1.271-1.438a.726.726 0 0 1 0 .066v1.419h-.26v-1.909h.154a.15.15 0 0 1 .052.009zM36.748 25.823v.758h-.291v-.758l-.804-1.15h.26a.114.114 0 0 1 .063.016.159.159 0 0 1 .039.043l.503.742a.717.717 0 0 1 .088.169l.038-.082a.745.745 0 0 1 .049-.087l.496-.747a.18.18 0 0 1 .038-.04.098.098 0 0 1 .063-.019h.263l-.806 1.155zM24.923 21.47c.127.014.255.025.384.035 1.962-.763 3.622-2.011 4.772-3.588s1.74-3.415 1.695-5.282l-2.162-1.879c.44 1.988.234 4.043-.594 5.935s-2.245 3.547-4.094 4.779z"/><path  d="m24.151 21.383.058.01c1.975-1.228 3.482-2.942 4.323-4.921s.981-4.133.4-6.181l-3.08-2.676c1.246 2.2 1.747 4.661 1.446 7.098s-1.393 4.75-3.147 6.67zM34.596 14.841c-.523 2.052-1.794 3.902-3.624 5.276-.534.404-1.111.763-1.722 1.074 1.49-.38 2.859-1.053 4.003-1.966s2.03-2.042 2.592-3.3l-1.249-1.084z"/><path  d="m34.106 14.539-1.778-1.545c-.034 1.762-.61 3.483-1.669 4.986s-2.562 2.731-4.352 3.559h.009c.399 0 .798-.021 1.194-.062 1.673-.593 3.151-1.537 4.303-2.748s1.94-2.65 2.295-4.189zM24.409 6.486 22.287 4.64c-1.897.637-3.528 1.756-4.68 3.212s-1.772 3.179-1.778 4.946c.007 1.952.763 3.846 2.149 5.383s3.322 2.628 5.501 3.101c1.946-2.06 3.085-4.605 3.252-7.266s-.647-5.299-2.323-7.53zM39.008 14.255c-.008-2.316-1.07-4.535-2.955-6.173s-4.439-2.561-7.105-2.567a11.3 11.3 0 0 0-3.602.582l12.99 11.286a7.647 7.647 0 0 0 .672-3.128z"/></symbol><symbol id="icon-Logo-3" viewBox="0 0 57 32"><path  d="M12.878 11.255h-.002c-1.279 0-2.316.921-2.316 2.058v.001c0 1.137 1.037 2.058 2.316 2.058h.002c1.279 0 2.316-.921 2.316-2.058v-.001c0-1.137-1.037-2.058-2.316-2.058zM29.971 10.597c-.004-1.579-.711-3.092-1.967-4.208s-2.958-1.745-4.735-1.749c-1.777.003-3.48.631-4.737 1.748s-1.964 2.63-1.968 4.209v8.706s13.405-1.327 13.406-8.704v-.001zM5.867 22.16c.003 1.098.496 2.151 1.369 2.928s2.058 1.215 3.294 1.218c1.236-.003 2.42-.441 3.294-1.218s1.366-1.829 1.37-2.927v-6.057s-9.327.924-9.327 6.056zm4.663 1.085c-.242 0-.478-.064-.678-.183s-.357-.289-.45-.487c-.092-.198-.117-.417-.069-.627s.163-.404.334-.556c.171-.152.388-.255.625-.297s.482-.02.706.062c.223.082.414.221.548.4s.206.388.206.603c.001.143-.031.284-.092.417s-.151.252-.264.353c-.114.101-.248.182-.397.236s-.308.083-.468.083v-.004zM19.056 21.302v2.275h-.469v-2.275h.469zm.906.972v.366h-1.034v-.366h1.034zm.11-.972v.367h-1.144v-.367h1.144zm2.14 1.084v.108c0 .173-.023.328-.07.466s-.113.255-.198.352a.85.85 0 0 1-.306.22c-.118.051-.248.077-.392.077s-.273-.026-.392-.077a.868.868 0 0 1-.306-.22c-.086-.097-.154-.214-.202-.352s-.07-.293-.07-.466v-.108c0-.174.023-.329.07-.466a1.04 1.04 0 0 1 .198-.352.87.87 0 0 1 .306-.222.986.986 0 0 1 .392-.077c.144 0 .274.026.392.077a.844.844 0 0 1 .306.222c.086.097.153.214.2.352.048.136.072.292.072.466zm-.473.108v-.111c0-.121-.011-.227-.033-.319s-.054-.169-.097-.231-.095-.109-.156-.141c-.061-.032-.132-.048-.211-.048s-.149.016-.211.048a.423.423 0 0 0-.155.141c-.042.063-.073.14-.095.231s-.033.198-.033.319v.111c0 .12.011.226.033.319a.708.708 0 0 0 .097.233c.043.063.095.11.156.142s.132.048.211.048a.42.42 0 0 0 .366-.19c.042-.064.073-.141.095-.233s.033-.199.033-.319zm1.995.488a.286.286 0 0 0-.019-.109.2.2 0 0 0-.066-.091c-.032-.028-.078-.056-.136-.083s-.134-.055-.227-.084a2.991 2.991 0 0 1-.294-.112 1.229 1.229 0 0 1-.244-.145.654.654 0 0 1-.166-.195.534.534 0 0 1-.059-.258.53.53 0 0 1 .063-.258.596.596 0 0 1 .175-.2.857.857 0 0 1 .266-.13c.103-.03.216-.045.339-.045.168 0 .314.03.439.091s.222.143.291.248c.07.105.105.226.105.361h-.466a.351.351 0 0 0-.042-.175.285.285 0 0 0-.125-.12.446.446 0 0 0-.209-.044.484.484 0 0 0-.203.038.276.276 0 0 0-.122.098.243.243 0 0 0-.041.137c0 .039.009.073.028.105.02.031.049.06.088.088s.086.053.142.077c.056.024.121.047.195.07.124.038.233.08.327.127.095.047.174.099.238.158s.111.124.144.198a.63.63 0 0 1 .048.252.547.547 0 0 1-.225.464c-.073.054-.16.095-.261.123s-.214.042-.339.042c-.113 0-.223-.015-.333-.044a1.011 1.011 0 0 1-.298-.136.657.657 0 0 1-.293-.564h.47c0 .071.011.131.033.18s.053.089.092.119c.041.03.089.052.144.066.056.014.118.02.184.02a.5.5 0 0 0 .2-.034c.053-.023.092-.055.117-.095s.039-.086.039-.137zm1.805-1.68v2.275h-.467v-2.275h.467zm.7 0v.367h-1.856v-.367h1.856zm1.794 1.909v.366h-1.211v-.366h1.211zm-1.058-1.909v2.275h-.469v-2.275h.469zm.9.927v.356h-1.053v-.356h1.053zm.156-.927v.367h-1.209v-.367h1.209zm.275 0h.848c.174 0 .323.026.448.078.126.052.223.129.291.231s.102.228.102.377a.718.718 0 0 1-.063.314.591.591 0 0 1-.173.217.898.898 0 0 1-.261.137l-.148.078h-.738l-.003-.366h.548c.082 0 .151-.015.205-.044s.095-.07.122-.122a.375.375 0 0 0 .042-.181c0-.073-.014-.136-.041-.189s-.068-.094-.123-.122a.456.456 0 0 0-.208-.042h-.38v1.908h-.469v-2.275zm1.272 2.275-.519-1.014.495-.003.525.995v.022h-.502zm2.461-.811h-.58V22.4h.58c.09 0 .163-.015.219-.044.056-.03.097-.072.123-.125s.039-.113.039-.18c0-.068-.013-.131-.039-.189s-.067-.105-.123-.141-.129-.053-.219-.053h-.417v1.908h-.469v-2.275h.886c.178 0 .331.032.458.097.128.064.226.152.294.264s.102.241.102.386c0 .147-.034.274-.102.381s-.166.19-.294.248c-.127.058-.28.088-.458.088zm2.703.445v.366h-1.211v-.366h1.211zm-1.058-1.909v2.275h-.469v-2.275h.469zm.9.927v.356h-1.053v-.356h1.053zm.156-.927v.367h-1.209v-.367h1.209zm1.324 0v2.275h-.467v-2.275h.467zm.7 0v.367h-1.856v-.367h1.856zm1.794 1.909v.366h-1.211v-.366h1.211zM37.5 21.302v2.275h-.469v-2.275h.469zm.9.927v.356h-1.053v-.356H38.4zm.156-.927v.367h-1.209v-.367h1.209zm.275 0h.848c.174 0 .323.026.448.078.126.052.223.129.291.231s.102.228.102.377a.718.718 0 0 1-.063.314.591.591 0 0 1-.173.217.898.898 0 0 1-.261.137l-.148.078h-.737l-.003-.366h.548c.082 0 .151-.015.205-.044s.095-.07.122-.122a.375.375 0 0 0 .042-.181c0-.073-.014-.136-.041-.189s-.068-.094-.123-.122a.456.456 0 0 0-.208-.042h-.38v1.908h-.469v-2.275zm1.272 2.275-.519-1.014.495-.003.525.995v.022h-.502zm1.962-.595a.286.286 0 0 0-.019-.109.2.2 0 0 0-.066-.091c-.032-.028-.078-.056-.136-.083s-.134-.055-.227-.084a2.991 2.991 0 0 1-.294-.112 1.229 1.229 0 0 1-.244-.145.654.654 0 0 1-.166-.195.534.534 0 0 1-.059-.258.53.53 0 0 1 .063-.258.596.596 0 0 1 .175-.2.857.857 0 0 1 .266-.13c.103-.03.216-.045.339-.045.168 0 .314.03.439.091s.222.143.291.248c.07.105.105.226.105.361h-.466a.351.351 0 0 0-.042-.175.285.285 0 0 0-.125-.12.446.446 0 0 0-.209-.044.484.484 0 0 0-.203.038.276.276 0 0 0-.122.098.243.243 0 0 0-.041.137c0 .039.009.073.028.105.02.031.049.06.088.088s.086.053.142.077c.056.024.121.047.195.07.124.038.233.08.327.127.095.047.174.099.237.158s.111.124.144.198a.63.63 0 0 1 .048.252.547.547 0 0 1-.225.464c-.073.054-.16.095-.261.123s-.214.042-.339.042c-.113 0-.223-.015-.333-.044a1.011 1.011 0 0 1-.298-.136.657.657 0 0 1-.293-.564h.47c0 .071.011.131.033.18s.053.089.092.119c.041.03.089.052.144.066.056.014.118.02.184.02a.5.5 0 0 0 .2-.034.25.25 0 0 0 .117-.095.249.249 0 0 0 .039-.137z"/></symbol><symbol id="icon-Logo-4" viewBox="0 0 57 32"><path  d="M14.27 23.859c.13.147.199.332.196.521.007.123-.017.247-.07.361s-.132.216-.233.297c-.252.175-.565.26-.881.24h-1.549v-3.302h1.517c.299-.018.596.059.84.219.098.075.176.17.227.277s.074.224.068.341a.725.725 0 0 1-.176.505.839.839 0 0 1-.462.258.897.897 0 0 1 .523.282zm-1.816-.499h.648a.653.653 0 0 0 .412-.11c.049-.04.087-.09.111-.146s.034-.116.028-.176c.005-.06-.005-.12-.029-.175s-.061-.106-.108-.147a.665.665 0 0 0-.425-.111h-.638v.866zm1.124 1.267c.052-.041.093-.093.12-.151s.038-.121.034-.184c.004-.064-.008-.127-.035-.186s-.069-.111-.121-.153a.714.714 0 0 0-.44-.119h-.68v.908h.689a.732.732 0 0 0 .435-.114zM17.371 25.278l-.844-1.291h-.317v1.291h-.726v-3.302h1.374c.346-.022.689.078.957.281.192.179.308.415.327.666s-.061.499-.224.7c-.17.178-.401.296-.655.336l.898 1.32h-.789zm-1.161-1.74h.594c.412 0 .618-.167.618-.5a.458.458 0 0 0-.151-.371.687.687 0 0 0-.467-.134h-.601l.007 1.005zM21.339 24.614h-1.446l-.255.665h-.761l1.328-3.265h.823l1.323 3.265h-.761l-.25-.665zm-.194-.5-.529-1.394-.529 1.394h1.057zM26.305 25.278h-.721l-1.616-2.245v2.245h-.719v-3.302h.719l1.616 2.258v-2.258h.721v3.302zM30.417 24.488a1.501 1.501 0 0 1-.652.582 2.282 2.282 0 0 1-1.013.208h-1.283v-3.302h1.283c.351-.008.698.061 1.013.203.276.127.503.328.652.576a1.78 1.78 0 0 1 0 1.732zm-.824-.079c.206-.219.319-.499.319-.788s-.113-.569-.319-.788a1.326 1.326 0 0 0-.902-.281h-.5v2.137h.5c.329.019.654-.082.902-.281zM21.79 3.609s9.301 3.215 9.103 7.867v7.869s-9.294-3.217-9.1-7.869l-.004-7.867zM39.179 17.503a13.494 13.494 0 0 1 5.909-1.994v-2.463c-2.444.862-4.517 2.426-5.909 4.457z"/><path  d="M38.124 18.245c1.438-2.651 3.93-4.696 6.964-5.715V5.432s-13.245 4.58-12.965 11.205V27.84s.59-.205 1.519-.589c0-.358 0-.719.042-1.082.274-3.076 1.871-5.926 4.44-7.924z"/><path  d="M36.864 22.407c.07-.777.225-1.546.463-2.294-1.599 1.725-2.568 3.866-2.77 6.122-.019.213-.03.426-.035.645a40.466 40.466 0 0 0 2.548-1.229 10.624 10.624 0 0 1-.206-3.244zM37.391 22.447a10.17 10.17 0 0 0 .164 2.938c3.619-1.983 7.685-5.046 7.528-8.748v-.323c-2.585.265-5.004 1.3-6.885 2.946a10.29 10.29 0 0 0-.807 3.188z"/></symbol><symbol id="icon-Logo-5" viewBox="0 0 57 32"><path d="M28.5 14.62a1.58 1.58 0 0 1-.33-1.06v-1.54c0-.47.1-.83.32-1.08s.58-.36 1.1-.36c.5 0 .84.1 1.05.31.22.27.33.6.3.92v.36h-.87v-.36c0-.12 0-.24-.03-.36a.35.35 0 0 0-.12-.21.5.5 0 0 0-.32-.09.53.53 0 0 0-.33.09.41.41 0 0 0-.15.24c-.02.12-.03.25-.03.38v1.86c-.01.18.02.36.11.53.05.05.1.1.18.12s.15.04.22.03c.11 0 .23-.02.31-.08a.38.38 0 0 0 .13-.23c.02-.12.03-.25.03-.37v-.38h.87v.34c.03.35-.08.69-.3.97-.2.23-.54.34-1.05.34s-.88-.12-1.1-.37zM32.14 14.63c-.22-.24-.34-.59-.34-1.05v-1.61c0-.46.11-.8.34-1.04s.59-.35 1.1-.35c.52 0 .89.12 1.1.35.23.23.34.58.34 1.04v1.61c0 .46-.11.81-.33 1.05s-.6.36-1.1.36c-.51 0-.9-.12-1.11-.36zm1.51-.39a.9.9 0 0 0 .1-.47v-1.98a.88.88 0 0 0-.1-.47c-.04-.06-.1-.1-.17-.13s-.16-.04-.23-.03c-.08 0-.16 0-.24.03s-.13.07-.18.13a.85.85 0 0 0-.1.47v1.99c-.01.16.03.33.1.48.06.05.12.09.19.12s.15.04.22.04c.08 0 .16-.02.23-.05s.13-.06.18-.11v-.01zM35.73 10.63h.95l.7 2.98.73-2.98h.92l.09 4.3h-.68l-.07-2.99-.7 3h-.54l-.73-3.01-.07 3h-.68l.08-4.3zM40.18 10.63h1.46c.85 0 1.27.4 1.27 1.22 0 .78-.44 1.17-1.33 1.17h-.5v1.91h-.9v-4.3zm1.25 1.84a.7.7 0 0 0 .5-.14.7.7 0 0 0 .13-.49c0-.13-.01-.26-.05-.39 0-.04-.03-.08-.06-.11l-.12-.1a.94.94 0 0 0-.4-.06h-.35v1.29h.35zM44.22 10.63h.97l1 4.3h-.84l-.2-.99h-.87l-.2 1h-.86l1-4.31zm.83 2.81-.34-1.8-.34 1.8h.68zM47 10.63h.63l1.21 2.45v-2.45h.76v4.3H49l-1.23-2.56v2.56H47v-4.3zM51.36 13.3l-1.01-2.67h.85l.61 1.71.58-1.7h.83l-1 2.65v1.64h-.86V13.3zM29.9 16.82v.22h-.75v1.75h-.3v-1.75h-.75v-.22h1.8zM32.2 18.8h-.23a.1.1 0 0 1-.07-.03.1.1 0 0 1-.04-.04l-.21-.47h-1.03l-.21.47c0 .02-.02.04-.03.05a.11.11 0 0 1-.07.02h-.24l.9-1.98h.32l.92 1.97zm-1.5-.74h.86l-.36-.8a1.43 1.43 0 0 1-.06-.2l-.04.11-.03.09-.36.8zM33.77 18.6h.17a1.02 1.02 0 0 0 .28-.06l.12-.05v-.44h-.39l-.02-.02-.02-.01V17.85h.7v.75a1.4 1.4 0 0 1-.6.2l-.27.02c-.16 0-.31-.03-.46-.08a1.1 1.1 0 0 1-.36-.2.96.96 0 0 1-.23-.32.99.99 0 0 1-.09-.4c0-.15.03-.29.08-.42a.9.9 0 0 1 .24-.31c.1-.1.23-.16.36-.2a1.56 1.56 0 0 1 .74-.06 1.21 1.21 0 0 1 .55.23l-.08.12-.03.03h-.04l-.06-.01a1.34 1.34 0 0 1-.09-.05 1.17 1.17 0 0 0-.87-.06c-.1.04-.19.1-.26.16a.7.7 0 0 0-.17.25.92.92 0 0 0 0 .66.76.76 0 0 0 .45.4c.1.03.23.05.35.04zM36.66 18.57h.99v.22h-1.3v-1.97h.32l-.01 1.75zM38.68 18.8h-.31v-1.98h.3v1.97zM39.83 16.83c.02 0 .03.02.05.03l1.32 1.5a.4.4 0 0 1 0-.08v-1.47h.27v1.98h-.22a.18.18 0 0 1-.05-.05l-1.32-1.48V18.79h-.26v-1.97H39.83zM43.75 16.82v.21h-1.1v.66h.9v.2h-.9v.68h1.1v.22h-1.41v-1.97h1.41zM11.29 4.62l13.75 3.37V19.8L11.3 16.43V4.62zM10.4 3.6V17l15.52 3.8V7.42L10.4 3.62z"/><path  d="M18.72 27.04 3.2 23.23V9.83l15.52 3.8v13.4z"/><path d="M10.66 4.46 24.24 7.8l-5.78 5L4.88 9.44l5.78-4.99zm-.26-.85L3.2 9.83l15.52 3.8 7.2-6.21L10.4 3.6zM19.6 26.28l6.32-5.46-6.33-1.56v7.02z"/></symbol><symbol id="mail" viewBox="0 0 43 32"><path  d="M38.667 0H4C1.794 0 0 1.794 0 4v24c0 2.206 1.794 4 4 4h34.667c2.206 0 4-1.794 4-4V4c0-2.206-1.794-4-4-4zm0 2.667c.181 0 .353.038.511.103L21.334 18.236 3.49 2.77a1.32 1.32 0 0 1 .511-.103h34.667zm0 26.666H4A1.334 1.334 0 0 1 2.667 28V5.587L20.46 21.008a1.335 1.335 0 0 0 1.748 0L40.001 5.587V28c0 .736-.598 1.333-1.333 1.333z"/></symbol><symbol id="phone" viewBox="0 0 20 32"><path  d="M17 0H3C1.346 0 0 1.346 0 3v26c0 1.654 1.346 3 3 3h14c1.654 0 3-1.346 3-3V3c0-1.654-1.346-3-3-3zM3 2h14a1 1 0 0 1 1 1v21H2V3a1 1 0 0 1 1-1zm14 28H3a1 1 0 0 1-1-1v-3h16v3a1 1 0 0 1-1 1z"/><path  d="M4.707 27.478c.391.365.391.956 0 1.321s-1.024.365-1.414 0c-.391-.365-.391-.956 0-1.321s1.024-.365 1.414 0z"/></symbol><symbol id="twitter" viewBox="0 0 32 32"><path d="M32 6.078c-1.19.522-2.458.868-3.78 1.036a6.523 6.523 0 0 0 2.886-3.626 13.11 13.11 0 0 1-4.16 1.588A6.574 6.574 0 0 0 22.154 3c-3.632 0-6.556 2.948-6.556 6.562 0 .52.044 1.02.152 1.496-5.454-.266-10.28-2.88-13.522-6.862a6.605 6.605 0 0 0-.898 3.316 6.57 6.57 0 0 0 2.914 5.452 6.479 6.479 0 0 1-2.964-.808v.072c0 3.188 2.274 5.836 5.256 6.446a6.548 6.548 0 0 1-1.72.216 5.8 5.8 0 0 1-1.242-.112c.85 2.598 3.262 4.508 6.13 4.57a13.182 13.182 0 0 1-8.134 2.798c-.538 0-1.054-.024-1.57-.09A18.469 18.469 0 0 0 10.064 29c12.072 0 18.672-10 18.672-18.668 0-.29-.01-.57-.024-.848A13.087 13.087 0 0 0 32 6.078z"/></symbol><symbol id="icon-email" viewBox="0 0 43 32"><path d="M37.333 0h-32c-2.2 0-3.98 1.8-3.98 4l-.02 24c0 2.2 1.8 4 4 4h32c2.2 0 4-1.8 4-4V4c0-2.2-1.8-4-4-4zm-.8 8.5-14.14 8.84c-.64.4-1.48.4-2.12 0L6.133 8.5c-.5-.32-.8-.86-.8-1.44 0-1.34 1.46-2.14 2.6-1.44l13.4 8.38 13.4-8.38c1.14-.7 2.6.1 2.6 1.44 0 .58-.3 1.12-.8 1.44z"/></symbol><symbol id="icon-send" viewBox="0 0 32 32"><path  d="M32 0 0 18l10.227 3.788L26 7 14.002 23.186l.01.004-.012-.004V32l5.735-6.691L27 28l5-28z"/></symbol><symbol id="icon-person" viewBox="0 0 32 32"><path d="M16 16c4.42 0 8-3.58 8-8s-3.58-8-8-8-8 3.58-8 8 3.58 8 8 8zm0 4c-5.34 0-16 2.68-16 8v2c0 1.1.9 2 2 2h28c1.1 0 2-.9 2-2v-2c0-5.32-10.66-8-16-8z"/></symbol><symbol id="icon-phone" viewBox="0 0 32 32"><path d="m27.419 20.852-4.201-.48a3.293 3.293 0 0 0-2.713.943l-3.044 3.044A24.888 24.888 0 0 1 6.56 13.458l3.06-3.06a3.293 3.293 0 0 0 .943-2.713l-.48-4.168A3.31 3.31 0 0 0 6.791.589H3.929C2.06.589.505 2.144.621 4.013c.877 14.126 12.174 25.407 26.284 26.284 1.869.116 3.424-1.439 3.424-3.308v-2.861c.016-1.671-1.241-3.077-2.911-3.275z"/></symbol><symbol id="icon-close-black" viewBox="0 0 32 32"><path d="m26.667 7.303-1.97-1.97-7.808 7.808-7.808-7.808-1.97 1.97 7.808 7.808-7.808 7.808 1.97 1.97 7.808-7.808 7.808 7.808 1.97-1.97-7.808-7.808 7.808-7.808z"/></symbol><symbol id="icon-check" viewBox="0 0 42 32"><path stroke-width=".64" d="m6.263 15.205-.22-.21-3.307 3.132 11.651 11.114L38.864 5.89l-3.285-3.134-21.192 20.197-8.124-7.75z"/></symbol></defs></svg>